<svg xmlns="http://www.w3.org/2000/svg" xmlns:xlink="http://www.w3.org/1999/xlink" width="500" zoomAndPan="magnify" viewBox="0 0 375 374.999991" height="500" preserveAspectRatio="xMidYMid meet" version="1.0"><path fill="#90b671" d="M 195.777344 224.105469 C 195.777344 224.105469 169.632812 103.09375 0 177.414062 C 0 177.414062 16.964844 315.878906 204.925781 289.753906 C 198.925781 290.570312 181.425781 275.925781 176.140625 272.4375 C 166.339844 266.039062 156.894531 259.058594 148.054688 251.296875 C 133.523438 238.605469 120.085938 224.597656 106.269531 211.15625 C 127.699219 219.054688 148.542969 223.082031 165.472656 238.703125 C 173.808594 246.402344 196.347656 269.289062 203.332031 278.453125 Z M 195.777344 224.105469 " fill-opacity="1" fill-rule="nonzero"/><path fill="#90b671" d="M 208.371094 221.777344 C 197.609375 187.355469 233.042969 149.734375 254.867188 127.964844 C 261.027344 121.808594 342.527344 59.316406 346.359375 80.355469 C 346.359375 80.453125 375.097656 239.042969 228.25 285.050781 C 232.917969 283.539062 239.695312 263.671875 242.125 258.570312 C 246.679688 249.023438 250.707031 239.1875 253.996094 228.851562 C 259.425781 211.875 263.503906 194.089844 268.109375 176.6875 C 255.746094 191.910156 242.273438 203.3125 236.257812 223.8125 C 233.289062 233.941406 226.214844 263.183594 224.808594 274.140625 C 224.808594 274.148438 208.417969 221.871094 208.371094 221.777344 Z M 208.371094 221.777344 " fill-opacity="1" fill-rule="nonzero"/></svg>