<svg width="32" height="29" viewBox="0 0 32 29" fill="none" xmlns="http://www.w3.org/2000/svg">
<path fill-rule="evenodd" clip-rule="evenodd" d="M9.6 1.6C9.6 0.716344 10.2612 0 11.0769 0H20.9231C21.7388 0 22.4 0.716344 22.4 1.6C22.4 2.48366 21.7388 3.2 20.9231 3.2H11.0769C10.2612 3.2 9.6 2.48366 9.6 1.6Z" fill="#80CC28"/>
<path fill-rule="evenodd" clip-rule="evenodd" d="M12.4444 28.8H19.5556C24.5492 28.8 27.046 28.8 28.8396 27.6443C29.6161 27.144 30.2827 26.5012 30.8016 25.7524C32 24.0229 32 21.6152 32 16.7998C32 11.9844 31.9997 9.57713 30.8013 7.84757C30.2825 7.09882 29.6158 6.45595 28.8393 5.95566C27.0458 4.8 24.5489 4.8 19.5553 4.8H12.4442C7.45054 4.8 4.95372 4.8 3.16013 5.95566C2.38366 6.45595 1.71699 7.09882 1.19817 7.84757C-9.53674e-08 9.57675 -5.82461e-08 11.9834 0 16.7966L0 16.7998C0 21.6152 9.53674e-08 24.0229 1.19844 25.7524C1.71725 26.5012 2.38393 27.144 3.16039 27.6443C4.95398 28.8 7.4508 28.8 12.4444 28.8ZM9.33333 16.7998C9.33333 13.2494 12.3181 10.3711 16 10.3711C19.6819 10.3711 22.6667 13.2494 22.6667 16.7998C22.6667 20.3503 19.6819 23.2285 16 23.2285C12.3181 23.2285 9.33333 20.3503 9.33333 16.7998ZM12 16.7998C12 14.6695 13.7909 12.9426 16 12.9426C18.2091 12.9426 20 14.6695 20 16.7998C20 18.9301 18.2091 20.657 16 20.657C13.7909 20.657 12 18.9301 12 16.7998ZM25.7778 10.3711C25.0414 10.3711 24.4444 10.9468 24.4444 11.6569C24.4444 12.367 25.0414 12.9426 25.7778 12.9426H26.6667C27.403 12.9426 28 12.367 28 11.6569C28 10.9468 27.403 10.3711 26.6667 10.3711H25.7778Z" fill="#80CC28"/>
</svg>
