<svg width="36" height="36" viewBox="0 0 36 36" fill="none" xmlns="http://www.w3.org/2000/svg">
<path d="M2 18L5.55556 14.4444M5.55556 14.4444L18 2L30.4444 14.4444M5.55556 14.4444V32.2222C5.55556 32.6937 5.74286 33.1459 6.07625 33.4793C6.40965 33.8127 6.86184 34 7.33333 34H12.6667M30.4444 14.4444L34 18M30.4444 14.4444V32.2222C30.4444 32.6937 30.2571 33.1459 29.9237 33.4793C29.5903 33.8127 29.1382 34 28.6667 34H23.3333M12.6667 34C13.1382 34 13.5903 33.8127 13.9237 33.4793C14.2571 33.1459 14.4444 32.6937 14.4444 32.2222V25.1111C14.4444 24.6396 14.6317 24.1874 14.9651 23.854C15.2985 23.5206 15.7507 23.3333 16.2222 23.3333H19.7778C20.2493 23.3333 20.7015 23.5206 21.0349 23.854C21.3683 24.1874 21.5556 24.6396 21.5556 25.1111V32.2222C21.5556 32.6937 21.7429 33.1459 22.0763 33.4793C22.4097 33.8127 22.8618 34 23.3333 34M12.6667 34H23.3333" stroke="white" stroke-width="2.5" stroke-linecap="round" stroke-linejoin="round"/>
</svg>
