<svg width="32" height="32" viewBox="0 0 32 32" fill="none" xmlns="http://www.w3.org/2000/svg">
<path fill-rule="evenodd" clip-rule="evenodd" d="M11.5185 6.03948C13.2747 2.46392 16.9531 0 21.2093 0C27.1688 0 32 4.83116 32 10.7907C32 12.3864 31.6529 13.904 31.0291 15.2697C30.8663 15.6261 30.8346 15.9628 30.907 16.2333L31.0966 16.9418C31.7034 19.2099 29.6285 21.2848 27.3604 20.678L26.6519 20.4884C26.4506 20.4345 26.2126 20.4383 25.9571 20.5109C25.1979 26.9804 19.6968 32 13.0233 32C11.014 32 9.10807 31.5442 7.40599 30.7293C7.06903 30.568 6.73727 30.5353 6.46436 30.6083L4.63956 31.0966C2.37153 31.7034 0.296593 29.6285 0.903437 27.3604L1.39169 25.5356C1.46471 25.2627 1.43198 24.931 1.27066 24.594C0.455791 22.8919 0 20.986 0 18.9767C0 12.2931 5.03476 6.78545 11.5185 6.03948ZM14.1172 5.99879C20.5541 6.53412 25.6616 11.7509 26.0257 18.235C26.4165 18.1977 26.8226 18.2229 27.229 18.3317L27.9375 18.5213C28.546 18.6841 29.1027 18.1274 28.9399 17.5189L28.7503 16.8104C28.5164 15.9362 28.6688 15.0635 28.9984 14.3421C29.4919 13.2617 29.7674 12.0599 29.7674 10.7907C29.7674 6.06417 25.9358 2.23256 21.2093 2.23256C18.2595 2.23256 15.6565 3.72515 14.1172 5.99879ZM13.0233 8.18605C7.06372 8.18605 2.23256 13.0172 2.23256 18.9767C2.23256 20.6453 2.61048 22.2224 3.28435 23.63C3.63472 24.3618 3.78164 25.2409 3.54838 26.1127L3.06013 27.9375C2.89732 28.546 3.45401 29.1027 4.0625 28.9399L5.8873 28.4516C6.75909 28.2184 7.63819 28.3653 8.37003 28.7157C9.7776 29.3895 11.3547 29.7674 13.0233 29.7674C18.9828 29.7674 23.814 24.9363 23.814 18.9767C23.814 13.0172 18.9828 8.18605 13.0233 8.18605Z" fill="white"/>
<path d="M9.30233 18.9767C9.30233 19.7987 8.63596 20.4651 7.81395 20.4651C6.99195 20.4651 6.32558 19.7987 6.32558 18.9767C6.32558 18.1547 6.99195 17.4884 7.81395 17.4884C8.63596 17.4884 9.30233 18.1547 9.30233 18.9767Z" fill="white"/>
<path d="M14.5116 18.9767C14.5116 19.7987 13.8453 20.4651 13.0233 20.4651C12.2013 20.4651 11.5349 19.7987 11.5349 18.9767C11.5349 18.1547 12.2013 17.4884 13.0233 17.4884C13.8453 17.4884 14.5116 18.1547 14.5116 18.9767Z" fill="white"/>
<path d="M19.7209 18.9767C19.7209 19.7987 19.0546 20.4651 18.2326 20.4651C17.4106 20.4651 16.7442 19.7987 16.7442 18.9767C16.7442 18.1547 17.4106 17.4884 18.2326 17.4884C19.0546 17.4884 19.7209 18.1547 19.7209 18.9767Z" fill="white"/>
</svg>
