<svg width="32" height="32" viewBox="0 0 32 32" fill="none" xmlns="http://www.w3.org/2000/svg">
<path fill-rule="evenodd" clip-rule="evenodd" d="M10.4186 11.5349C10.4186 8.45236 12.9175 5.95349 16 5.95349C19.0825 5.95349 21.5814 8.45236 21.5814 11.5349C21.5814 14.6174 19.0825 17.1163 16 17.1163C12.9175 17.1163 10.4186 14.6174 10.4186 11.5349ZM16 8.18605C14.1505 8.18605 12.6512 9.68537 12.6512 11.5349C12.6512 13.3844 14.1505 14.8837 16 14.8837C17.8495 14.8837 19.3488 13.3844 19.3488 11.5349C19.3488 9.68537 17.8495 8.18605 16 8.18605Z" fill="white"/>
<path fill-rule="evenodd" clip-rule="evenodd" d="M0 16C0 7.16344 7.16344 0 16 0C24.8366 0 32 7.16344 32 16C32 24.8366 24.8366 32 16 32C7.16344 32 0 24.8366 0 16ZM16 2.23256C8.39645 2.23256 2.23256 8.39645 2.23256 16C2.23256 19.7888 3.76301 23.2201 6.23941 25.7094C6.5079 24.2611 7.03545 22.8955 8.09432 21.7974C9.67817 20.1548 12.2108 19.3488 15.9999 19.3488C19.789 19.3488 22.3217 20.1548 23.9055 21.7974C24.9644 22.8955 25.492 24.2611 25.7605 25.7096C28.2369 23.2202 29.7674 19.7888 29.7674 16C29.7674 8.39645 23.6035 2.23256 16 2.23256ZM23.7301 27.3941C23.5785 25.5903 23.1868 24.2684 22.2984 23.347C21.3318 22.3446 19.5407 21.5814 15.9999 21.5814C12.4592 21.5814 10.6681 22.3446 9.70143 23.347C8.81305 24.2683 8.42137 25.5902 8.26973 27.394C10.4734 28.892 13.1345 29.7674 16 29.7674C18.8655 29.7674 21.5264 28.892 23.7301 27.3941Z" fill="white"/>
</svg>
