<svg width="39" height="39" viewBox="0 0 39 39" fill="none" xmlns="http://www.w3.org/2000/svg">
<path opacity="0.2" d="M39 19.5C39 30.2696 30.2696 39 19.5 39C8.73045 39 0 30.2696 0 19.5C0 8.73045 8.73045 0 19.5 0C30.2696 0 39 8.73045 39 19.5Z" fill="#80CC28"/>
<path d="M28.8732 33.1719C26.2071 35.0033 22.9786 36.0751 19.4997 36.0751C16.0207 36.0751 12.7921 35.0032 10.126 33.1718C8.94844 32.3629 8.44524 30.8221 9.12987 29.5682C10.5491 26.969 13.4736 25.35 19.4996 25.35C25.5257 25.35 28.4501 26.969 29.8693 29.5684C30.5539 30.8222 30.0507 32.363 28.8732 33.1719Z" fill="#80CC28"/>
<path d="M19.4997 19.5C22.7306 19.5 25.3497 16.8809 25.3497 13.65C25.3497 10.4192 22.7306 7.80005 19.4997 7.80005C16.2688 7.80005 13.6497 10.4192 13.6497 13.65C13.6497 16.8809 16.2688 19.5 19.4997 19.5Z" fill="#80CC28"/>
</svg>
