<svg width="39" height="39" viewBox="0 0 39 39" fill="none" xmlns="http://www.w3.org/2000/svg">
<path opacity="0.2" d="M39 19.5C39 30.2696 30.2696 39 19.5 39C8.73045 39 0 30.2696 0 19.5C0 8.73045 8.73045 0 19.5 0C30.2696 0 39 8.73045 39 19.5Z" fill="#80CC28"/>
<circle cx="18.8002" cy="11.6" r="5.6" fill="#80CC28"/>
<path d="M23.5806 22.1103C22.1665 21.6578 20.536 21.3999 18.8 21.3999C13.3876 21.3999 9 23.9071 9 26.9999C9 29.9967 13.1194 32.4437 18.299 32.5927C18.261 32.4159 18.2316 32.2404 18.2084 32.068C18.0997 31.2592 18.0999 30.271 18.1 29.2202V28.9795C18.0999 27.9288 18.0997 26.9406 18.2084 26.1317C18.3295 25.2317 18.6187 24.2466 19.4327 23.4325C20.2467 22.6185 21.2319 22.3293 22.1319 22.2083C22.5686 22.1496 23.0577 22.1226 23.5806 22.1103Z" fill="#80CC28"/>
<path fill-rule="evenodd" clip-rule="evenodd" d="M25.1002 34C22.7903 34 21.6354 34 20.9178 33.2824C20.2002 32.5648 20.2002 31.4098 20.2002 29.1C20.2002 26.7901 20.2002 25.6351 20.9178 24.9175C21.6354 24.2 22.7903 24.2 25.1002 24.2C27.4101 24.2 28.565 24.2 29.2826 24.9175C30.0002 25.6351 30.0002 26.7901 30.0002 29.1C30.0002 31.4098 30.0002 32.5648 29.2826 33.2824C28.565 34 27.4101 34 25.1002 34ZM23.4999 26.3447C23.181 26.0258 22.6639 26.0258 22.3449 26.3447C22.026 26.6636 22.026 27.1807 22.3449 27.4996L23.9453 29.1L22.3449 30.7003C22.026 31.0192 22.026 31.5363 22.3449 31.8552C22.6639 32.1741 23.181 32.1741 23.4999 31.8552L25.1002 30.2549L26.7005 31.8552C27.0194 32.1741 27.5365 32.1741 27.8554 31.8552C28.1744 31.5363 28.1744 31.0192 27.8554 30.7003L26.2551 29.1L27.8554 27.4996C28.1744 27.1807 28.1744 26.6636 27.8554 26.3447C27.5365 26.0258 27.0194 26.0258 26.7005 26.3447L25.1002 27.945L23.4999 26.3447Z" fill="#F01E29"/>
</svg>
