<svg width="10" height="10" viewBox="0 0 10 10" fill="none" xmlns="http://www.w3.org/2000/svg">
<path d="M7.7907 4.99997C7.7907 6.54123 6.54126 7.79067 5 7.79067C3.45874 7.79067 2.2093 6.54123 2.2093 4.99997C2.2093 3.45871 3.45874 2.20927 5 2.20927C6.54126 2.20927 7.7907 3.45871 7.7907 4.99997Z" fill="#F8CB58"/>
<path fill-rule="evenodd" clip-rule="evenodd" d="M5 -3.05176e-05C5.19266 -3.05176e-05 5.34884 0.156149 5.34884 0.348807V0.813923C5.34884 1.00658 5.19266 1.16276 5 1.16276C4.80734 1.16276 4.65116 1.00658 4.65116 0.813923V0.348807C4.65116 0.156149 4.80734 -3.05176e-05 5 -3.05176e-05ZM0 4.99997C0 4.80731 0.15618 4.65113 0.348837 4.65113H0.813954C1.00661 4.65113 1.16279 4.80731 1.16279 4.99997C1.16279 5.19263 1.00661 5.34881 0.813954 5.34881H0.348837C0.15618 5.34881 0 5.19263 0 4.99997ZM8.83721 4.99997C8.83721 4.80731 8.99339 4.65113 9.18605 4.65113H9.65116C9.84382 4.65113 10 4.80731 10 4.99997C10 5.19263 9.84382 5.34881 9.65116 5.34881H9.18605C8.99339 5.34881 8.83721 5.19263 8.83721 4.99997ZM5 8.83718C5.19266 8.83718 5.34884 8.99336 5.34884 9.18602V9.65113C5.34884 9.84379 5.19266 9.99997 5 9.99997C4.80734 9.99997 4.65116 9.84379 4.65116 9.65113V9.18602C4.65116 8.99336 4.80734 8.83718 5 8.83718Z" fill="#F8CB58"/>
<g opacity="0.5">
<path d="M1.46448 1.46429C1.60071 1.32806 1.82158 1.32806 1.95781 1.46429L2.14052 1.64701C2.27675 1.78324 2.27675 2.00411 2.14052 2.14034C2.00429 2.27657 1.78342 2.27657 1.64719 2.14034L1.46448 1.95762C1.32825 1.82139 1.32825 1.60052 1.46448 1.46429Z" fill="#F8CB58"/>
<path d="M8.53542 1.46441C8.67165 1.60064 8.67165 1.82152 8.53542 1.95774L8.3527 2.14046C8.21647 2.27669 7.9956 2.27669 7.85937 2.14046C7.72314 2.00423 7.72314 1.78336 7.85937 1.64713L8.04209 1.46441C8.17832 1.32818 8.39919 1.32818 8.53542 1.46441Z" fill="#F8CB58"/>
<path d="M7.85937 7.85919C7.9956 7.72296 8.21647 7.72296 8.3527 7.85919L8.53542 8.0419C8.67165 8.17813 8.67165 8.399 8.53542 8.53523C8.39919 8.67146 8.17832 8.67146 8.04209 8.53523L7.85937 8.35252C7.72314 8.21629 7.72314 7.99542 7.85937 7.85919Z" fill="#F8CB58"/>
<path d="M2.14052 7.85931C2.27675 7.99554 2.27675 8.21641 2.14052 8.35264L1.95781 8.53535C1.82158 8.67158 1.60071 8.67158 1.46448 8.53535C1.32825 8.39913 1.32825 8.17825 1.46448 8.04202L1.64719 7.85931C1.78342 7.72308 2.00429 7.72308 2.14052 7.85931Z" fill="#F8CB58"/>
</g>
</svg>
