<svg width="9" height="10" viewBox="0 0 9 10" fill="none" xmlns="http://www.w3.org/2000/svg">
<path d="M8.33333 5.52656C8.33333 7.99716 6.46785 9.99997 4.16667 9.99997C1.86548 9.99997 0 7.99716 0 5.52656C0 3.98075 1.63118 1.91756 2.85232 0.589583C3.57523 -0.196568 4.7581 -0.196568 5.48101 0.589583C6.70216 1.91756 8.33333 3.98075 8.33333 5.52656Z" fill="#55ACEC"/>
<path d="M8.33333 5.52656C8.33333 7.99716 6.46785 9.99997 4.16667 9.99997C1.86548 9.99997 0 7.99716 0 5.52656C0 3.98075 1.63118 1.91756 2.85232 0.589583C3.57523 -0.196568 4.7581 -0.196568 5.48101 0.589583C6.70216 1.91756 8.33333 3.98075 8.33333 5.52656Z" fill="#55ACEC"/>
<path d="M8.33333 5.52656C8.33333 7.99716 6.46785 9.99997 4.16667 9.99997C1.86548 9.99997 0 7.99716 0 5.52656C0 3.98075 1.63118 1.91756 2.85232 0.589583C3.57523 -0.196568 4.7581 -0.196568 5.48101 0.589583C6.70216 1.91756 8.33333 3.98075 8.33333 5.52656Z" fill="#55ACEC"/>
<path d="M8.33333 5.52656C8.33333 7.99716 6.46785 9.99997 4.16667 9.99997C1.86548 9.99997 0 7.99716 0 5.52656C0 3.98075 1.63118 1.91756 2.85232 0.589583C3.57523 -0.196568 4.7581 -0.196568 5.48101 0.589583C6.70216 1.91756 8.33333 3.98075 8.33333 5.52656Z" fill="#55ACEC"/>
<path d="M8.33333 5.52656C8.33333 7.99716 6.46785 9.99997 4.16667 9.99997C1.86548 9.99997 0 7.99716 0 5.52656C0 3.98075 1.63118 1.91756 2.85232 0.589583C3.57523 -0.196568 4.7581 -0.196568 5.48101 0.589583C6.70216 1.91756 8.33333 3.98075 8.33333 5.52656Z" fill="#55ACEC"/>
</svg>
